<svg width="106" height="106" viewBox="0 0 106 106" fill="none" xmlns="http://www.w3.org/2000/svg">
<g clip-path="url(#clip0_9_6127)">
<path d="M52.857 105.458C81.7197 105.458 105.118 82.0598 105.118 53.1971C105.118 24.3344 81.7197 0.936523 52.857 0.936523C23.9943 0.936523 0.596436 24.3344 0.596436 53.1971C0.596436 82.0598 23.9943 105.458 52.857 105.458Z" stroke="#00B9C2" stroke-opacity="0.96" stroke-width="0.538769" stroke-miterlimit="10"/>
<path d="M57.6305 60.4648H46.742V82.0802H57.6305V60.4648Z" fill="#00B9C2" fill-opacity="0.96"/>
<path d="M43.6226 60.4657C41.7961 60.4657 40.3037 58.9787 40.3037 57.1469C40.3037 55.3151 41.7907 53.8281 43.6226 53.8281H60.7392C62.5657 53.8281 64.0581 55.3151 64.0581 57.1469C64.0581 58.9787 62.5711 60.4657 60.7392 60.4657H58.9128V82.0812H63.126C63.821 78.924 65.4211 73.4986 68.9447 67.3782C68.9555 67.362 68.9608 67.3458 68.9716 67.3351C71.3476 63.9085 72.6029 59.8893 72.6029 55.7084C72.6029 44.4482 63.4385 35.2837 52.1782 35.2837C40.9179 35.2837 31.7535 44.4482 31.7535 55.7084C31.7535 59.5822 32.8418 63.3482 34.9053 66.6077C34.9161 66.6239 34.9214 66.6347 34.9322 66.6508C37.987 71.7745 39.6572 76.4564 40.5192 79.4843C40.7994 80.4648 41.0149 81.3377 41.1765 82.0812H45.449V60.4657H43.6226Z" fill="#00B9C2" fill-opacity="0.96"/>
<path d="M40.266 91.1104V91.2558C44.0266 92.4357 48.0297 93.0715 52.1836 93.0715C56.3375 93.0715 60.3351 92.4357 64.1011 91.2558V91.1104H40.2714H40.266Z" fill="#00B9C2" fill-opacity="0.96"/>
<path d="M64.0957 86.9346H40.266V89.8224H64.0957V86.9346Z" fill="#00B9C2" fill-opacity="0.96"/>
<path d="M64.1011 83.3682H58.2716H46.0955H40.266V85.6472H64.1011V83.3682Z" fill="#00B9C2" fill-opacity="0.96"/>
<path d="M60.7392 59.1776C61.8599 59.1776 62.7704 58.267 62.7704 57.1464C62.7704 56.0258 61.8599 55.1152 60.7392 55.1152H43.6225C42.5019 55.1152 41.5914 56.0258 41.5914 57.1464C41.5914 58.267 42.5019 59.1776 43.6225 59.1776H60.7392Z" fill="#00B9C2" fill-opacity="0.96"/>
<path d="M52.1836 24.2056C51.828 24.2056 51.5424 24.4911 51.5424 24.8467V29.4963C51.5424 29.8519 51.828 30.1374 52.1836 30.1374C52.5391 30.1374 52.8247 29.8519 52.8247 29.4963V24.8467C52.8247 24.4911 52.5391 24.2056 52.1836 24.2056Z" fill="#00B9C2" fill-opacity="0.96"/>
<path d="M42.6096 26.8078C42.4318 26.5007 42.0385 26.3929 41.7314 26.5707C41.4243 26.7485 41.3165 27.1418 41.4943 27.4489L43.8164 31.4735C43.935 31.6782 44.1505 31.7968 44.3768 31.7968C44.4845 31.7968 44.5976 31.7698 44.7 31.7105C45.0071 31.5328 45.1149 31.1395 44.9371 30.8324L42.615 26.8078H42.6096Z" fill="#00B9C2" fill-opacity="0.96"/>
<path d="M38.5527 35.1325L34.5281 32.8104C34.221 32.6326 33.8277 32.7404 33.6499 33.0475C33.4721 33.3546 33.5799 33.7479 33.887 33.9257L37.9116 36.2478C38.0139 36.307 38.1217 36.334 38.2348 36.334C38.4557 36.334 38.6712 36.2208 38.7952 36.0107C38.973 35.7036 38.8652 35.3103 38.5581 35.1325H38.5527Z" fill="#00B9C2" fill-opacity="0.96"/>
<path d="M69.8336 32.8104L65.809 35.1325C65.5019 35.3103 65.3942 35.7036 65.572 36.0107C65.6905 36.2155 65.906 36.334 66.1323 36.334C66.24 36.334 66.3532 36.307 66.4556 36.2478L70.4802 33.9257C70.7873 33.7479 70.895 33.3546 70.7172 33.0475C70.5394 32.7404 70.1461 32.6326 69.839 32.8104H69.8336Z" fill="#00B9C2" fill-opacity="0.96"/>
<path d="M62.6356 26.5707C62.3285 26.3929 61.9352 26.5007 61.7574 26.8078L59.4353 30.8324C59.2575 31.1395 59.3653 31.5328 59.6724 31.7105C59.7747 31.7698 59.8825 31.7968 59.9956 31.7968C60.2165 31.7968 60.432 31.6836 60.556 31.4735L62.878 27.4489C63.0558 27.1418 62.9481 26.7485 62.641 26.5707H62.6356Z" fill="#00B9C2" fill-opacity="0.96"/>
<path d="M41.1765 82.0802C41.0094 81.3367 40.7993 80.4639 40.5192 79.4834C39.6571 76.4555 37.987 71.7736 34.9321 66.6499C34.9268 66.6337 34.916 66.623 34.9052 66.6068C32.8417 63.3472 31.7534 59.5813 31.7534 55.7075C31.7534 44.4472 40.9179 35.2828 52.1781 35.2828C63.4384 35.2828 72.6029 44.4472 72.6029 55.7075C72.6029 59.8883 71.3475 63.9076 68.9716 67.3341C68.9608 67.3503 68.95 67.3665 68.9446 67.3772C65.4211 73.4976 63.8263 78.923 63.1259 82.0802H64.4459C65.1517 78.9877 66.7087 73.8425 70.0491 68.0453C72.5651 64.4086 73.8959 60.1416 73.8959 55.7075C73.8959 43.7361 64.155 33.9951 52.1835 33.9951C40.2121 33.9951 30.4711 43.7361 30.4711 55.7075C30.4711 59.8129 31.6241 63.8106 33.8007 67.2695C33.8007 67.2695 33.8007 67.2803 33.8061 67.2856C37.432 73.363 39.1076 78.8638 39.8457 82.0856H41.1711L41.1765 82.0802Z" fill="#020112"/>
<path d="M39.6248 89.8224H40.2659V86.9346H39.6248C39.2692 86.9346 38.9836 86.649 38.9836 86.2935V90.4689C38.9836 90.1133 39.2692 89.8278 39.6248 89.8278V89.8224Z" fill="#020112"/>
<path d="M65.2325 90.8836C65.2864 90.8674 65.3348 90.8459 65.3887 90.8297V90.4688C65.3887 90.625 65.3295 90.7705 65.2325 90.8836Z" fill="#020112"/>
<path d="M64.7422 86.9341H64.1011V89.8219H64.7422C65.0978 89.8219 65.3833 90.1075 65.3833 90.4631V86.2876C65.3833 86.6432 65.0978 86.9287 64.7422 86.9287V86.9341Z" fill="#020112"/>
<path d="M38.9783 90.8244C39.0322 90.8405 39.0807 90.8621 39.1346 90.8782C39.0376 90.7651 38.9783 90.625 38.9783 90.4634V90.8244Z" fill="#020112"/>
<path d="M39.6248 85.6467H40.2659V83.3677H46.0954C45.7398 83.3677 45.4543 83.0822 45.4543 82.7266V82.0854H39.6248C39.2692 82.0854 38.9836 82.371 38.9836 82.7266V86.2932C38.9836 85.9376 39.2692 85.6521 39.6248 85.6521V85.6467Z" fill="#020112"/>
<path d="M63.1259 82.0806H58.9127V82.7217C58.9127 83.0773 58.6272 83.3629 58.2716 83.3629H64.1011V85.6418H64.7422C65.0978 85.6418 65.3834 85.9274 65.3834 86.283V82.7163C65.3834 82.3607 65.0978 82.0752 64.7422 82.0752H63.1259V82.0806Z" fill="#020112"/>
<path d="M39.8188 91.1099C39.9697 91.1584 40.1206 91.2068 40.266 91.2553V91.1099H39.8188Z" fill="#020112"/>
<path d="M64.1011 91.2553C64.2519 91.2068 64.4028 91.1584 64.5482 91.1099H64.1011V91.2553Z" fill="#020112"/>
<path d="M57.6251 82.7217V82.0806H46.7366V82.7217C46.7366 83.0773 46.451 83.3628 46.0955 83.3628H58.2663C57.9107 83.3628 57.6251 83.0773 57.6251 82.7217Z" fill="#020112"/>
<path d="M39.6248 86.9341H64.7422C65.0978 86.9341 65.3833 86.6486 65.3833 86.293C65.3833 85.9374 65.0978 85.6519 64.7422 85.6519H39.6248C39.2692 85.6519 38.9836 85.9374 38.9836 86.293C38.9836 86.6486 39.2692 86.9341 39.6248 86.9341Z" fill="#020112"/>
<path d="M64.7422 89.8223H39.6248C39.2692 89.8223 38.9836 90.1078 38.9836 90.4634C38.9836 90.6196 39.0429 90.7651 39.1399 90.8783C39.3662 90.9591 39.5925 91.0345 39.8241 91.1045H64.5536C64.7799 91.0291 65.0116 90.9537 65.2379 90.8783C65.3348 90.7651 65.3941 90.625 65.3941 90.4634C65.3941 90.1078 65.1085 89.8223 64.753 89.8223H64.7422Z" fill="#020112"/>
<path d="M46.742 82.7219V60.46H45.4543V82.7219C45.4543 83.0775 45.7399 83.363 46.0955 83.363C46.4511 83.363 46.7366 83.0775 46.7366 82.7219H46.742Z" fill="#020112"/>
<path d="M57.6251 60.4648V82.7268C57.6251 83.0824 57.9107 83.3679 58.2663 83.3679C58.6219 83.3679 58.9074 83.0824 58.9074 82.7268V60.4648H57.6198H57.6251Z" fill="#020112"/>
<path d="M58.9128 60.4648H60.7392C62.5656 60.4648 64.058 58.9778 64.058 57.146C64.058 55.3142 62.571 53.8271 60.7392 53.8271H43.6225C41.7961 53.8271 40.3037 55.3142 40.3037 57.146C40.3037 58.9778 41.7907 60.4648 43.6225 60.4648H58.9128ZM43.6225 59.1771C42.5019 59.1771 41.5914 58.2666 41.5914 57.146C41.5914 56.0253 42.5019 55.1148 43.6225 55.1148H60.7392C61.8599 55.1148 62.7704 56.0253 62.7704 57.146C62.7704 58.2666 61.8599 59.1771 60.7392 59.1771H43.6225Z" fill="#020112"/>
<path d="M62.6572 15.591C62.5872 15.591 62.5171 15.5802 62.4471 15.5641C61.1217 15.2031 59.7587 14.9122 58.401 14.6913C57.9646 14.6212 57.6628 14.2064 57.7329 13.77C57.8029 13.3336 58.2178 13.0319 58.6542 13.1019C60.0711 13.3282 61.4881 13.6353 62.8673 14.007C63.2984 14.1256 63.5516 14.5674 63.4331 14.993C63.3361 15.3486 63.0128 15.5856 62.6572 15.5856V15.591Z" fill="#00B9C2" fill-opacity="0.96"/>
<path d="M52.1835 93.8744C41.3273 93.8744 31.1231 89.645 23.4456 81.973C15.7681 74.2955 11.5442 64.0912 11.5442 53.235C11.5442 42.3788 15.7735 32.1746 23.4456 24.4971C31.1231 16.8197 41.3273 12.5957 52.1835 12.5957C52.6253 12.5957 52.9863 12.9567 52.9863 13.3985C52.9863 13.8403 52.6253 14.2012 52.1835 14.2012C41.7583 14.2012 31.9528 18.2636 24.5824 25.6339C17.212 33.0043 13.1497 42.8099 13.1497 53.235C13.1497 63.6602 17.212 73.4658 24.5824 80.8362C31.9528 88.2065 41.7583 92.2688 52.1835 92.2688C62.6087 92.2688 72.4143 88.2065 79.7847 80.8362C87.155 73.4658 91.2173 63.6602 91.2173 53.235C91.2173 45.9186 89.1808 38.7906 85.334 32.6164C81.5895 26.6091 76.288 21.7278 70.0006 18.4952C69.6073 18.2905 69.4511 17.8056 69.6504 17.4123C69.8551 17.019 70.34 16.8628 70.7333 17.0621C77.2794 20.424 82.8018 25.51 86.6971 31.7651C90.7055 38.198 92.8229 45.6222 92.8229 53.235C92.8229 64.0912 88.5935 74.2955 80.9215 81.973C73.244 89.6504 63.0397 93.8744 52.1835 93.8744Z" fill="#00B9C2" fill-opacity="0.96"/>
<path d="M66.5633 17.0561C67.1286 17.0561 67.5869 16.5978 67.5869 16.0324C67.5869 15.4671 67.1286 15.0088 66.5633 15.0088C65.9979 15.0088 65.5396 15.4671 65.5396 16.0324C65.5396 16.5978 65.9979 17.0561 66.5633 17.0561Z" fill="#00B9C2" fill-opacity="0.96"/>
</g>
<defs>
<clipPath id="clip0_9_6127">
<rect width="105.06" height="105.06" fill="white" transform="translate(0.327026 0.666992)"/>
</clipPath>
</defs>
</svg>
