<svg width="186" height="57" viewBox="0 0 186 57" fill="none" xmlns="http://www.w3.org/2000/svg">
<g clip-path="url(#clip0_17_318)">
<path d="M89.0661 0H98.2231C106.814 0 112.919 5.25937 112.919 12.7136C112.919 20.1678 106.814 25.4603 98.2231 25.4603H89.0661V0ZM98.93 20.4908C103.804 20.4908 107.264 17.269 107.264 12.7053C107.264 8.14167 103.804 4.9612 98.93 4.9612H94.5386V20.4908H98.93Z" fill="#0AA0D0"/>
<path d="M122.675 4.92807V10.0052H135.508V14.9333H122.675V20.5323H136.855V25.4603H117.169V0H136.855V4.92807H122.675Z" fill="#0AA0D0"/>
<path d="M146.52 4.92807V10.0052H159.353V14.9333H146.52V20.5323H160.7V25.4603H141.014V0H160.7V4.92807H146.52Z" fill="#0AA0D0"/>
<path d="M164.867 0H176.361C181.908 0 186 3.55318 186 8.59721C186 13.6412 181.908 17.1944 176.361 17.1944H170.331V25.4603H164.858V0H164.867ZM175.77 12.1918C178.49 12.1918 180.345 10.7838 180.345 8.59721C180.345 6.41064 178.482 5.00262 175.77 5.00262H170.339V12.1918H175.77Z" fill="#0AA0D0"/>
<path d="M89.0661 31.1011H102.016C106.59 31.1011 109.759 33.768 109.759 37.4703C109.759 40.0627 108.453 41.9511 106.191 43.1438C109.168 44.4773 110.881 46.846 110.881 49.6621C110.881 53.7371 107.38 56.5531 102.506 56.5531H89.0744V31.0928L89.0661 31.1011ZM100.643 41.363C102.689 41.363 104.145 40.1786 104.145 38.547C104.145 36.9154 102.698 35.7641 100.643 35.7641H94.5386V41.363H100.643ZM101.5 51.8901C103.696 51.8901 105.259 50.5897 105.259 48.7759C105.259 46.962 103.696 45.6616 101.5 45.6616H94.5386V51.8901H101.5Z" fill="#0AA0D0"/>
<path d="M132.905 51.625V56.5531H114.674V31.0928H120.18V51.625H132.905Z" fill="#0AA0D0"/>
<path d="M136.406 45.5535V31.1006H141.879V45.3299C141.879 49.2558 144.407 52.0387 147.983 52.0387C151.56 52.0387 154.046 49.2558 154.046 45.3299V31.1006H159.552V45.5535C159.552 52.2623 154.753 56.9999 147.983 56.9999C141.213 56.9999 136.414 52.254 136.414 45.5535H136.406Z" fill="#0AA0D0"/>
<path d="M170.04 36.0287V41.1058H182.873V46.0339H170.04V51.6328H184.22V56.5609H164.534V31.1006H184.22V36.0287H170.04Z" fill="#0AA0D0"/>
<path d="M15.9519 56.9676H0.282776V39.4336C0.864962 42.5727 2.27052 45.9353 4.94858 49.3643C4.94858 49.3643 9.05715 54.7479 15.9519 56.9676Z" fill="#0AA0D0"/>
<path d="M78.9444 0.000469976V37.2302H68.648C68.5732 38.1247 68.4235 39.0689 68.1989 40.0794C68.1989 40.0794 64.8971 49.5959 53.6359 47.3348C53.6359 47.3348 48.7456 45.9765 47.157 43.1439V55.7167C47.157 55.7167 48.4878 56.3959 50.6751 56.9756H27.895C31.4962 55.8575 35.4218 53.6378 39.5886 49.8278L44.4291 53.9028V37.2302H34.482V37.9839C34.482 37.9839 32.6024 49.1984 18.946 47.6164C18.946 47.6164 11.1613 45.3884 10.2797 37.2302H0.282776V32.6997H10.5791C11.3194 29.8836 13.6481 24.6243 20.7092 23.7215C20.7092 23.7215 28.6186 22.7027 31.9121 28.252L32.2531 15.9608C32.2531 15.9608 17.8066 7.67833 4.95689 21.7254C4.95689 21.7254 1.40556 25.9081 0.291093 32.1199V0.000469976H34.7399L34.5153 32.6914H44.6952C45.66 30.0659 49.4692 22.0733 59.674 23.8788C59.674 23.8788 66.81 25.4111 68.4068 32.6914H78.6699C78.3123 30.5794 77.622 28.3265 76.5075 25.9163C76.5075 25.9163 73.0394 16.5737 61.0962 14.0227C61.0962 14.0227 50.2343 12.4904 44.3792 17.4185L44.4291 -0.0078125H78.9527L78.9444 0.000469976Z" fill="#0AA0D0"/>
<path d="M78.9444 37.2305V56.9759H62.8178C65.2464 56.2802 67.7747 55.0626 70.2449 53.108C70.2449 53.108 78.437 47.4676 78.9444 37.2305Z" fill="#0AA0D0"/>
<path d="M0.282787 32.1201V32.6916H0.182983C0.207934 32.5011 0.241202 32.3106 0.282787 32.1201Z" fill="#606060"/>
<path d="M0 37.2305H0.282776V39.4419C0.141388 38.6882 0.0499016 37.951 0 37.2305Z" fill="#606060"/>
</g>
<defs>
<clipPath id="clip0_17_318">
<rect width="186" height="57" fill="white"/>
</clipPath>
</defs>
</svg>
