<svg width="106" height="106" viewBox="0 0 106 106" fill="none" xmlns="http://www.w3.org/2000/svg">
<g clip-path="url(#clip0_9_6209)">
<path d="M52.857 105.688C81.7197 105.688 105.118 82.2903 105.118 53.4276C105.118 24.5648 81.7197 1.16699 52.857 1.16699C23.9943 1.16699 0.596436 24.5648 0.596436 53.4276C0.596436 82.2903 23.9943 105.688 52.857 105.688Z" stroke="#00B9C2" stroke-opacity="0.96" stroke-width="0.538769" stroke-miterlimit="10"/>
<path d="M65.2325 91.1141C65.2864 91.0979 65.3348 91.0764 65.3887 91.0602V90.6992C65.3887 90.8555 65.3295 91.0009 65.2325 91.1141Z" fill="#020112"/>
<path d="M38.9783 91.0543C39.0322 91.0705 39.0807 91.0921 39.1346 91.1082C39.0376 90.9951 38.9783 90.855 38.9783 90.6934V91.0543Z" fill="#020112"/>
<path d="M39.8188 91.3398C39.9697 91.3883 40.1206 91.4368 40.266 91.4853V91.3398H39.8188Z" fill="#020112"/>
<path d="M64.1011 91.4853C64.2519 91.4368 64.4028 91.3883 64.5482 91.3398H64.1011V91.4853Z" fill="#020112"/>
<path d="M62.6572 15.821C62.5872 15.821 62.5171 15.8102 62.4471 15.7941C61.1217 15.4331 59.7587 15.1421 58.401 14.9213C57.9646 14.8512 57.6628 14.4364 57.7329 14C57.8029 13.5636 58.2178 13.2618 58.6542 13.3319C60.0711 13.5582 61.4881 13.8653 62.8673 14.237C63.2984 14.3555 63.5516 14.7973 63.4331 15.223C63.3361 15.5785 63.0128 15.8156 62.6572 15.8156V15.821Z" fill="#00B9C2" fill-opacity="0.96"/>
<path d="M52.1835 94.1048C41.3273 94.1048 31.1231 89.8755 23.4456 82.2034C15.7681 74.526 11.5442 64.3217 11.5442 53.4655C11.5442 42.6093 15.7735 32.405 23.4456 24.7276C31.1231 17.0501 41.3273 12.8262 52.1835 12.8262C52.6253 12.8262 52.9863 13.1871 52.9863 13.6289C52.9863 14.0707 52.6253 14.4317 52.1835 14.4317C41.7583 14.4317 31.9528 18.494 24.5824 25.8644C17.212 33.2347 13.1497 43.0403 13.1497 53.4655C13.1497 63.8907 17.212 73.6963 24.5824 81.0666C31.9528 88.437 41.7583 92.4993 52.1835 92.4993C62.6087 92.4993 72.4143 88.437 79.7847 81.0666C87.155 73.6963 91.2173 63.8907 91.2173 53.4655C91.2173 46.149 89.1808 39.0211 85.334 32.8468C81.5895 26.8395 76.288 21.9583 70.0006 18.7257C69.6073 18.521 69.4511 18.0361 69.6504 17.6428C69.8551 17.2495 70.34 17.0932 70.7333 17.2926C77.2794 20.6545 82.8018 25.7405 86.6971 31.9956C90.7055 38.4285 92.8229 45.8527 92.8229 53.4655C92.8229 64.3217 88.5935 74.526 80.9215 82.2034C73.244 89.8809 63.0397 94.1048 52.1835 94.1048Z" fill="#00B9C2" fill-opacity="0.96"/>
<path d="M66.5633 17.2861C67.1286 17.2861 67.5869 16.8278 67.5869 16.2624C67.5869 15.6971 67.1286 15.2388 66.5633 15.2388C65.9979 15.2388 65.5396 15.6971 65.5396 16.2624C65.5396 16.8278 65.9979 17.2861 66.5633 17.2861Z" fill="#00B9C2" fill-opacity="0.96"/>
<g clip-path="url(#clip1_9_6209)">
<path d="M80.3527 36.3086L65.0292 34.9914C63.11 34.8274 62.0031 37.0691 63.3283 38.4361L67.6339 42.8947L53.0161 55.6393C53.0161 55.6393 48.3246 50.5842 48.1165 50.3655C46.9487 49.1328 45.3239 48.5661 43.7347 48.6755C42.5009 48.7401 41.2823 49.2073 40.3024 50.0971C40.2161 50.1766 32.7066 56.4793 25.1667 63.3636C23.0342 65.3071 22.9378 68.5777 24.9484 70.6455L25.2581 70.9636C27.2383 73.0015 30.5183 73.101 32.6254 71.1873L43.7855 61.604C43.7855 61.604 48.4313 66.6392 48.6699 66.8877C49.8428 68.1204 51.4726 68.6871 53.0618 68.5728C54.3007 68.5131 55.5244 68.0459 56.5043 67.1512C56.7277 66.9474 75.1281 50.6538 75.1281 50.6538L79.1341 54.8042C80.4543 56.1711 82.8051 55.2168 82.7442 53.3329L82.2567 38.282C82.2212 37.2481 81.4037 36.3981 80.3476 36.3086H80.3527Z" fill="#008F96"/>
<path d="M29.0661 73.2998C27.4769 73.2998 25.8826 72.6885 24.7097 71.4806L24.4 71.1625C23.283 70.0143 22.6991 68.5132 22.7448 66.9325C22.7956 65.3568 23.4709 63.8955 24.6488 62.8169C29.0357 58.8106 34.3364 54.1631 39.5712 49.7343L39.7946 49.5454C40.8507 48.5811 42.2419 48.0095 43.6941 47.9349C45.5625 47.8057 47.3853 48.5065 48.6699 49.8585C48.8425 50.0375 51.8432 53.2733 53.0669 54.5905L66.5372 42.845L62.7697 38.9431C61.9472 38.0931 61.7543 36.8604 62.2722 35.8067C62.7951 34.7529 63.8969 34.1366 65.0901 34.2409L80.4136 35.5581C81.8505 35.6824 82.9675 36.8406 83.0132 38.2522L83.5007 53.3032C83.5362 54.4712 82.8508 55.52 81.7439 55.9724C80.6421 56.4197 79.3982 56.1612 78.5756 55.3113L75.0824 51.6927C72.0157 54.4116 57.2354 67.4992 57.012 67.698C55.9458 68.6722 54.5546 69.2438 53.0923 69.3134C51.2187 69.4526 49.3959 68.7468 48.1063 67.3898C47.9134 67.186 44.9329 63.9601 43.7194 62.6429L33.123 71.7391C31.9805 72.7779 30.5233 73.2899 29.0611 73.2899L29.0661 73.2998ZM44.1256 49.4112C44.0139 49.4112 43.9022 49.4112 43.7905 49.4211C42.6786 49.4758 41.6276 49.9132 40.8253 50.6439C40.8203 50.6489 40.7289 50.7284 40.5715 50.8626C35.3519 55.2815 30.0664 59.914 25.6897 63.9104C24.8113 64.7156 24.3036 65.8042 24.268 66.9773C24.2325 68.1553 24.6691 69.2737 25.5018 70.1286L25.8115 70.4467C27.4921 72.1815 30.3202 72.266 32.1075 70.6356L43.8464 60.5553L44.349 61.102C45.9535 62.8417 49.0405 66.182 49.2233 66.3758C50.1982 67.4047 51.5741 67.9316 53.006 67.8272C54.1281 67.7725 55.1791 67.3401 55.9813 66.6045C56.2098 66.3957 73.8638 50.7632 74.6153 50.0971L75.1687 49.61L79.6876 54.2873C80.1547 54.7695 80.7538 54.7595 81.1651 54.5955C81.5763 54.4265 82.0028 54.014 81.9825 53.3529L81.4951 38.3019C81.4748 37.6458 80.9518 37.104 80.2816 37.0444L64.9581 35.7271C64.2828 35.6675 63.836 36.0651 63.6431 36.4578C63.4501 36.8505 63.4095 37.437 63.8715 37.9192L68.7204 42.9395L52.9501 56.6881L52.4424 56.1414C50.8227 54.3967 47.7153 51.0465 47.5529 50.8725C46.6592 49.9331 45.4204 49.4062 44.1155 49.4062L44.1256 49.4112Z" fill="white"/>
</g>
</g>
<defs>
<clipPath id="clip0_9_6209">
<rect width="105.06" height="105.06" fill="white" transform="translate(0.327026 0.896973)"/>
</clipPath>
<clipPath id="clip1_9_6209">
<rect width="60.766" height="39.0639" fill="white" transform="translate(22.7448 34.2358)"/>
</clipPath>
</defs>
</svg>
