<svg width="186" height="57" viewBox="0 0 186 57" fill="none" xmlns="http://www.w3.org/2000/svg">
<g clip-path="url(#clip0_1_1606)">
<path d="M89.0661 0H98.2231C106.814 0 112.919 5.25937 112.919 12.7136C112.919 20.1678 106.814 25.4603 98.2231 25.4603H89.0661V0ZM98.93 20.4908C103.804 20.4908 107.264 17.269 107.264 12.7053C107.264 8.14167 103.804 4.9612 98.93 4.9612H94.5386V20.4908H98.93Z" fill="white"/>
<path d="M122.675 4.92807V10.0052H135.508V14.9333H122.675V20.5323H136.855V25.4603H117.169V0H136.855V4.92807H122.675Z" fill="white"/>
<path d="M146.52 4.92807V10.0052H159.353V14.9333H146.52V20.5323H160.7V25.4603H141.014V0H160.7V4.92807H146.52Z" fill="white"/>
<path d="M164.867 0H176.361C181.908 0 186 3.55318 186 8.59721C186 13.6412 181.908 17.1944 176.361 17.1944H170.331V25.4603H164.858V0H164.867ZM175.77 12.1918C178.49 12.1918 180.345 10.7838 180.345 8.59721C180.345 6.41064 178.482 5.00262 175.77 5.00262H170.339V12.1918H175.77Z" fill="white"/>
<path d="M89.0661 31.1007H102.016C106.59 31.1007 109.759 33.7676 109.759 37.4699C109.759 40.0623 108.453 41.9507 106.191 43.1434C109.168 44.4769 110.881 46.8457 110.881 49.6617C110.881 53.7367 107.38 56.5527 102.506 56.5527H89.0744V31.0924L89.0661 31.1007ZM100.643 41.3627C102.689 41.3627 104.145 40.1783 104.145 38.5466C104.145 36.915 102.698 35.7637 100.643 35.7637H94.5386V41.3627H100.643ZM101.5 51.8897C103.696 51.8897 105.259 50.5894 105.259 48.7755C105.259 46.9616 103.696 45.6613 101.5 45.6613H94.5386V51.8897H101.5Z" fill="white"/>
<path d="M132.905 51.6247V56.5527H114.674V31.0924H120.18V51.6247H132.905Z" fill="white"/>
<path d="M136.406 45.5536V31.1007H141.879V45.33C141.879 49.2559 144.407 52.0388 147.983 52.0388C151.56 52.0388 154.046 49.2559 154.046 45.33V31.1007H159.552V45.5536C159.552 52.2624 154.753 57 147.983 57C141.213 57 136.414 52.2542 136.414 45.5536H136.406Z" fill="white"/>
<path d="M170.04 36.0288V41.1059H182.873V46.034H170.04V51.633H184.22V56.561H164.534V31.1007H184.22V36.0288H170.04Z" fill="white"/>
<path d="M15.9519 56.9669H0.282776V39.4329C0.864962 42.572 2.27052 45.9346 4.94858 49.3636C4.94858 49.3636 9.05715 54.7472 15.9519 56.9669Z" fill="white"/>
<path d="M78.9444 1.22124e-05V37.2297H68.648C68.5732 38.1242 68.4235 39.0685 68.1989 40.0789C68.1989 40.0789 64.8971 49.5955 53.6359 47.3344C53.6359 47.3344 48.7456 45.976 47.157 43.1434V55.7162C47.157 55.7162 48.4878 56.3954 50.6751 56.9752H27.895C31.4962 55.857 35.4218 53.6373 39.5886 49.8274L44.4291 53.9024V37.2297H34.482V37.9834C34.482 37.9834 32.6024 49.1979 18.946 47.616C18.946 47.616 11.1613 45.388 10.2797 37.2297H0.282776V32.6992H10.5791C11.3194 29.8832 13.6481 24.6238 20.7092 23.721C20.7092 23.721 28.6186 22.7023 31.9121 28.2515L32.2531 15.9603C32.2531 15.9603 17.8066 7.67787 4.95689 21.7249C4.95689 21.7249 1.40556 25.9076 0.291093 32.1195V1.22124e-05H34.7399L34.5153 32.6909H44.6952C45.66 30.0654 49.4692 22.0728 59.674 23.8784C59.674 23.8784 66.81 25.4106 68.4068 32.6909H78.6699C78.3123 30.5789 77.622 28.3261 76.5075 25.9159C76.5075 25.9159 73.0394 16.5732 61.0962 14.0222C61.0962 14.0222 50.2343 12.49 44.3792 17.4181L44.4291 -0.00827026H78.9527L78.9444 1.22124e-05Z" fill="white"/>
<path d="M78.9444 37.2297V56.9752H62.8178C65.2464 56.2794 67.7747 55.0619 70.2449 53.1072C70.2449 53.1072 78.437 47.4669 78.9444 37.2297Z" fill="white"/>
<path d="M0.282787 32.1194V32.6909H0.182983C0.207934 32.5004 0.241202 32.3099 0.282787 32.1194Z" fill="#606060"/>
<path d="M0 37.2297H0.282776V39.4412C0.141388 38.6875 0.0499016 37.9503 0 37.2297Z" fill="#606060"/>
</g>
<defs>
<clipPath id="clip0_1_1606">
<rect width="186" height="57" fill="white"/>
</clipPath>
</defs>
</svg>
