<svg width="101" height="159" viewBox="0 0 101 159" fill="none" xmlns="http://www.w3.org/2000/svg">
<g clip-path="url(#clip0_90_6584)">
<path d="M90.3534 75.9329L99.5304 101.702C100.71 105.018 100.71 108.738 99.5212 112.189L83.9649 157.476C83.5817 158.583 81.9823 158.523 81.6874 157.388L73.4774 125.796L90.3504 75.9329H90.3534Z" fill="white"/>
<path d="M45.2108 60.6636L22.08 75.5046C19.1061 77.4144 16.8134 80.3591 15.6306 83.8107L0.0712028 129.097C-0.308888 130.207 0.995584 131.131 1.92605 130.41L27.8695 110.373L45.2108 60.6636Z" fill="white"/>
<path d="M28.277 121.892L66.0702 134.679C66.8334 134.935 67.6757 134.633 68.0923 133.949L73.2676 125.489C73.8392 124.559 73.3983 123.343 72.3584 122.99L30.4998 108.834C29.4598 108.484 28.3591 109.172 28.2375 110.258L27.1246 120.094C27.0364 120.891 27.5138 121.642 28.277 121.898V121.892Z" fill="white"/>
<path d="M24.2571 105.826L36.2376 70.9548C42.6292 52.3605 52.9251 35.326 66.4533 20.9828L82.706 3.74016C87.1394 -0.960461 95.0909 1.72776 95.7051 8.13605L97.9613 31.6422C99.8405 51.1959 97.5052 70.9246 91.1227 89.5159L79.1392 124.393C77.9594 127.83 74.192 129.667 70.7286 128.497L28.3895 114.175C24.9261 113.004 23.0743 109.266 24.2541 105.829L24.2571 105.826Z" fill="#020112"/>
<path d="M72.8753 129.492C72.0878 129.492 71.2941 129.359 70.5248 129.1L28.1858 114.778C24.3879 113.496 22.3506 109.383 23.649 105.621L35.6295 70.7495C42.091 51.944 52.3018 35.0513 65.979 20.5452L82.2377 3.29952C84.4635 0.940159 87.7658 0.119512 90.8491 1.16644C93.9324 2.21035 96.0426 4.85634 96.3528 8.07557L98.609 31.5787C100.509 51.3617 98.1955 70.9215 91.7339 89.724L79.7504 124.601C79.124 126.427 77.8195 127.899 76.0742 128.75C75.0616 129.248 73.97 129.495 72.8723 129.495L72.8753 129.492ZM24.8714 106.034C23.8041 109.133 25.4795 112.509 28.5993 113.562L70.9384 127.884C72.4496 128.397 74.0703 128.294 75.5056 127.594C76.9408 126.894 78.0142 125.688 78.528 124.185L90.5085 89.3136C96.9092 70.6831 99.1989 51.2983 97.3167 31.7024L95.0605 8.19625C94.802 5.48691 93.0262 3.25728 90.4294 2.37629C87.8357 1.50435 85.0534 2.18923 83.1804 4.17448L66.9216 21.4201C53.3691 35.7935 43.2495 52.5293 36.8518 71.1598L24.8714 106.031V106.034Z" fill="white"/>
<path d="M46.3328 60.7933C42.2765 72.5901 48.6316 85.4158 60.5209 89.4375C72.4132 93.4623 85.3362 87.1566 89.3895 75.3568C93.4459 63.56 87.0907 50.7374 75.2015 46.7126C63.3092 42.6938 50.3861 48.9965 46.3328 60.7933Z" fill="white"/>
<path d="M67.8824 91.2989C65.3374 91.2989 62.7892 90.8826 60.311 90.0408C54.3968 88.0435 49.6198 83.8769 46.868 78.3134C44.11 72.7499 43.7056 66.4532 45.7186 60.585C47.7376 54.7168 51.9369 49.9769 57.544 47.2465C63.1511 44.51 69.4971 44.1087 75.4082 46.106C81.3225 48.1093 86.0994 52.2699 88.8543 57.8394C91.6123 63.4029 92.0167 69.6996 90.0007 75.5648C87.9877 81.4331 83.7885 86.1729 78.1814 88.9094C74.9217 90.4964 71.4097 91.3019 67.8855 91.3019L67.8824 91.2989ZM67.8399 46.1362C64.5042 46.1362 61.1898 46.8934 58.1095 48.399C52.8126 50.9816 48.8475 55.459 46.941 61.0013C45.0375 66.5468 45.4206 72.4934 48.0265 77.7462C50.6294 83.005 55.1418 86.9362 60.7276 88.8279C66.3165 90.7227 72.3097 90.3425 77.6097 87.7539C82.9067 85.1712 86.8687 80.6939 88.7783 75.1485C90.6818 69.6031 90.2956 63.6564 87.6928 58.4036C85.0869 53.1479 80.5775 49.2136 74.9917 47.3219C72.6503 46.5314 70.239 46.1362 67.8399 46.1362Z" fill="white"/>
<path d="M67.3442 77.5228C67.1648 77.5228 66.9915 77.4474 66.8668 77.3116L56.5162 66.1152C56.276 65.8557 56.2912 65.4484 56.5557 65.2071C56.8172 64.9687 57.2277 64.9838 57.471 65.2493L67.2226 75.8031L78.2665 56.8226C78.4459 56.5179 78.8443 56.4123 79.1544 56.5903C79.4615 56.7683 79.568 57.1635 79.3916 57.4682L67.9068 77.203C67.8034 77.381 67.6209 77.4957 67.4172 77.5228C67.3898 77.5228 67.3686 77.5258 67.3442 77.5258V77.5228Z" fill="white"/>
</g>
<defs>
<clipPath id="clip0_90_6584">
<rect width="100.411" height="157.555" fill="white" transform="translate(0.0043335 0.717041)"/>
</clipPath>
</defs>
</svg>
