<svg width="148" height="118" viewBox="0 0 148 118" fill="none" xmlns="http://www.w3.org/2000/svg">
<g clip-path="url(#clip0_90_6611)">
<path d="M1.32063 84.6062H35.1778V84.9747C36.8424 78.175 43.1569 73.1751 50.491 73.3778C51.9467 73.4208 56.9712 73.7218 58.1813 73.8692L98.1625 78.648C103.654 79.3052 108.015 84.3175 107.861 89.7843C107.831 90.0422 107.782 90.2941 107.726 90.5398L114.778 85.8101L131.952 74.293C139.176 69.4466 144.427 77.8925 144.427 77.8925C144.427 77.8925 150.122 86.0435 141.762 91.6516L107.763 114.458C105.988 115.841 103.734 116.645 101.307 116.584H1.31448" fill="white"/>
<path d="M101.584 117.892C101.479 117.892 101.375 117.892 101.271 117.892H1.31448C0.589676 117.892 0 117.302 0 116.577C0 115.853 0.589676 115.263 1.31448 115.263H101.307C103.365 115.324 105.355 114.667 106.952 113.42C106.977 113.402 107.002 113.383 107.026 113.365L141.025 90.558C143.199 89.1023 144.495 87.3394 144.876 85.3185C145.533 81.8726 143.365 78.6785 143.34 78.6478C143.328 78.6294 143.316 78.611 143.303 78.5925C143.285 78.5557 140.988 74.9562 137.609 74.2375C135.969 73.8874 134.354 74.2682 132.677 75.3923L108.457 91.6391C108.015 91.9339 107.431 91.9339 106.989 91.6391C106.547 91.3443 106.326 90.8037 106.43 90.2816C106.467 90.0851 106.51 89.8885 106.541 89.6858C106.645 84.8885 102.825 80.5335 98.0028 79.9562L58.0216 75.1773C56.8914 75.0422 51.959 74.7351 50.448 74.6921C43.8817 74.5078 37.9972 78.9672 36.4493 85.2878C36.2896 85.9328 35.6754 86.3689 35.012 86.2829C34.7171 86.246 34.4592 86.117 34.2565 85.9266H1.32063C0.595818 85.9266 0.00614245 85.3369 0.00614245 84.6121C0.00614245 83.8873 0.595818 83.2976 1.32063 83.2976H34.2995C36.609 76.5164 43.2122 71.8665 50.5278 72.0692C51.9774 72.1122 57.0511 72.4132 58.341 72.5668L98.3223 77.3456C103.881 78.009 108.39 82.6343 109.09 88.0458L131.221 73.1995C133.494 71.6761 135.834 71.1602 138.181 71.6638C142.517 72.5975 145.257 76.7436 145.527 77.1675C145.803 77.5729 148.291 81.3873 147.468 85.7792C146.952 88.531 145.281 90.8713 142.493 92.7386L108.531 115.521C106.541 117.057 104.084 117.898 101.578 117.898L101.584 117.892Z" fill="#020112"/>
<path d="M97.7633 99.8393C97.3087 99.8393 96.8481 99.8148 96.3812 99.7595L70.4109 96.6576C69.6861 96.5716 69.1763 95.9143 69.2623 95.1957C69.3483 94.4708 70.0055 93.961 70.7242 94.047L96.6945 97.149C101.498 97.7202 105.871 94.3603 106.443 89.6613C106.713 87.4255 106.086 85.208 104.674 83.4083C103.218 81.5533 101.129 80.3801 98.7768 80.0975C98.052 80.0115 97.5421 79.3543 97.6281 78.6356C97.7141 77.9108 98.3652 77.3948 99.09 77.487C102.137 77.8494 104.852 79.3788 106.744 81.7867C108.592 84.1392 109.409 87.0508 109.053 89.9869C108.359 95.6686 103.439 99.8516 97.7571 99.8516L97.7633 99.8393Z" fill="#020112"/>
<path d="M34.9383 93.2179C34.3056 93.2179 33.7466 92.7634 33.6422 92.1184C32.4076 84.7905 36.4186 79.1763 36.5844 78.9367C37.0144 78.347 37.8375 78.218 38.4272 78.648C39.0169 79.078 39.1459 79.8949 38.722 80.4846C38.6667 80.5583 35.2024 85.4845 36.2405 91.6823C36.3633 92.401 35.8781 93.0766 35.1594 93.1995C35.0857 93.2118 35.012 93.2179 34.9383 93.2179Z" fill="#020112"/>
<path d="M86.8789 98.4819C86.8789 98.4819 86.8543 98.4819 86.842 98.4819C86.1172 98.4634 85.5398 97.8553 85.5644 97.1305L85.6749 93.3161C85.6749 93.2792 85.6749 93.2423 85.6811 93.2055C86.1479 89.0778 89.9132 86.0864 94.0778 86.5471L98.7399 87.063C99.4647 87.1429 99.9868 87.794 99.907 88.5188C99.8271 89.2436 99.1822 89.7657 98.4512 89.6859L93.7891 89.1699C91.0803 88.8751 88.6294 90.7915 88.3039 93.4512L88.1995 97.2104C88.1811 97.9229 87.5914 98.488 86.885 98.488L86.8789 98.4819Z" fill="#020112"/>
<path d="M135.92 96.5532C135.595 96.5532 135.263 96.4303 135.011 96.1846L132.468 93.7522C132.468 93.7522 132.419 93.7031 132.394 93.6724C131.148 92.2657 130.533 90.4599 130.656 88.5803C130.779 86.7007 131.633 84.9869 133.058 83.7523L136.295 80.9513C136.842 80.4722 137.677 80.5336 138.15 81.0865C138.629 81.6393 138.568 82.4685 138.015 82.9415L134.778 85.7424C133.893 86.5103 133.359 87.579 133.279 88.7523C133.205 89.907 133.574 91.0188 134.323 91.8849L136.823 94.2805C137.345 94.7841 137.364 95.6195 136.866 96.1416C136.608 96.4119 136.264 96.547 135.914 96.547L135.92 96.5532Z" fill="#020112"/>
<path d="M94.5201 65.466C112.235 65.466 126.596 51.1051 126.596 33.3901C126.596 15.6751 112.235 1.31421 94.5201 1.31421C76.805 1.31421 62.4442 15.6751 62.4442 33.3901C62.4442 51.1051 76.805 65.466 94.5201 65.466Z" fill="white"/>
<path d="M94.5201 66.7869C76.105 66.7869 61.1297 51.8054 61.1297 33.3965C61.1297 14.9876 76.1111 0 94.5201 0C112.929 0 127.91 14.9814 127.91 33.3904C127.91 51.7993 112.929 66.7807 94.5201 66.7807V66.7869ZM94.5201 2.63511C77.5608 2.63511 63.7587 16.4311 63.7587 33.3965C63.7587 50.362 77.5546 64.1579 94.5201 64.1579C111.486 64.1579 125.281 50.362 125.281 33.3965C125.281 16.4311 111.486 2.63511 94.5201 2.63511Z" fill="#020112"/>
<path d="M124.575 10.7062C121.872 8.00353 117.493 8.00353 114.796 10.7062L93.2301 32.2724L85.2204 24.2626C82.5177 21.5599 78.1381 21.5599 75.4416 24.2626C72.7389 26.9591 72.7389 31.3387 75.4416 34.0414L87.7572 46.357C89.256 47.8558 91.2768 48.4946 93.2363 48.3287C95.1957 48.4946 97.2105 47.8619 98.7154 46.357L124.587 20.485C127.29 17.7823 127.29 13.4027 124.587 10.7062H124.575Z" fill="#020112"/>
<path d="M92.6159 49.6677C90.4353 49.6677 88.353 48.8201 86.8174 47.2845L74.5018 34.9688C72.9478 33.4148 72.0878 31.3448 72.0878 29.1458C72.0878 26.9468 72.9416 24.8768 74.5018 23.3227C77.7143 20.1102 82.9354 20.1102 86.1479 23.3227L93.2301 30.3989L113.869 9.76021C117.081 6.5477 122.302 6.5477 125.515 9.76021C128.721 12.9727 128.721 18.1938 125.515 21.4063L99.6429 47.2783C97.966 48.9552 95.638 49.8151 93.2363 49.637C93.0336 49.6493 92.8247 49.6616 92.622 49.6616L92.6159 49.6677ZM80.3248 23.5562C78.8937 23.5562 77.4563 24.1028 76.363 25.1962C75.3065 26.2527 74.7229 27.6593 74.7229 29.1519C74.7229 30.6445 75.3065 32.0512 76.363 33.1138L88.6786 45.4294C89.8334 46.5842 91.4427 47.1616 93.1134 47.0203C93.1871 47.0203 93.2609 47.0203 93.3407 47.0203C95.0053 47.1616 96.6208 46.5842 97.7755 45.4294L123.648 19.5574C125.828 17.3768 125.828 13.8204 123.648 11.6398C121.467 9.45923 117.911 9.45923 115.73 11.6398L94.1638 33.206C93.6478 33.7219 92.8186 33.7219 92.3026 33.206L84.2929 25.1962C83.1995 24.1028 81.7683 23.5562 80.331 23.5562H80.3248Z" fill="#020112"/>
</g>
<defs>
<clipPath id="clip0_90_6611">
<rect width="147.64" height="117.892" fill="white"/>
</clipPath>
</defs>
</svg>
