<svg width="158" height="124" viewBox="0 0 158 124" fill="none" xmlns="http://www.w3.org/2000/svg">
<g clip-path="url(#clip0_90_6627)">
<path d="M87.2552 89.2771C87.9662 86.7129 88.4208 84.1428 88.6539 81.5901C92.2905 83.9854 96.3467 85.8736 100.764 87.1033C123.586 93.4616 147.242 80.1157 153.6 57.2937C159.958 34.4716 146.612 10.8162 123.79 4.45798C100.968 -1.90025 77.3128 11.4456 70.9546 34.2677C70.2436 36.8319 69.789 39.402 69.5559 41.9546C65.9193 39.5594 61.8631 37.6711 57.4455 36.4415C34.6235 30.0832 10.9681 43.4291 4.60984 66.2511C-1.7484 89.0732 11.5975 112.729 34.4195 119.087C57.2415 125.445 80.897 112.099 87.2552 89.2771Z" fill="white"/>
<path d="M100.17 95.0355L101.569 89.3649C124.979 95.0937 148.955 81.1942 155.471 57.8069C162.115 33.9591 148.116 9.1498 124.268 2.506C104.955 -2.87315 84.2073 5.33253 73.8278 22.4607C73.583 22.8628 73.4024 23.2883 73.28 23.7254C72.6855 25.8525 73.5481 28.1954 75.5295 29.3901C77.9131 30.8354 81.0136 30.0719 82.4589 27.6883C90.5072 14.4124 106.586 8.05415 121.564 12.2211C140.056 17.373 150.908 36.605 145.756 55.0911C140.709 73.21 122.135 83.9858 103.993 79.5624L105.275 74.3756C105.8 72.2601 103.696 70.4417 101.673 71.2635L84.9183 78.0879C83.2398 78.7698 82.7153 80.897 83.8867 82.284L95.5483 96.1136C96.9529 97.7804 99.657 97.151 100.182 95.0296L100.17 95.0355Z" fill="#008F96"/>
<path d="M97.5648 97.9435C96.5333 97.9435 95.5483 97.4947 94.8606 96.6846L83.199 82.8551C82.4589 81.9809 82.1908 80.8386 82.4647 79.7197C82.7386 78.6065 83.5079 77.7207 84.5686 77.2836L101.324 70.4591C102.565 69.9521 103.964 70.1852 104.978 71.0594C105.992 71.9336 106.423 73.2857 106.103 74.5911L105.036 78.9212C122.642 82.7502 140.033 72.3241 144.899 54.8695C147.329 46.151 146.21 37.0012 141.752 29.0986C137.294 21.1959 130.038 15.5079 121.319 13.0777C106.72 9.00981 91.0434 15.2107 83.199 28.1544C81.5089 30.946 77.8607 31.8435 75.0691 30.1476C72.8079 28.778 71.7239 26.0447 72.4349 23.498C72.5806 22.9793 72.7962 22.4781 73.076 22.0177C83.6536 4.55147 104.803 -3.81738 124.495 1.66667C136.256 4.94194 146.047 12.6173 152.061 23.2765C158.076 33.9357 159.585 46.285 156.31 58.0457C153.105 69.5558 145.639 79.2243 135.295 85.262C125.23 91.1365 113.51 92.9606 102.21 90.4197L101.021 95.251C100.7 96.5506 99.692 97.5472 98.3865 97.8561C98.1184 97.9202 97.8445 97.9493 97.5706 97.9493L97.5648 97.9435ZM102.676 71.9452C102.449 71.9452 102.215 71.9919 101.988 72.0851L85.233 78.9096C84.6968 79.131 84.3063 79.5798 84.1665 80.1451C84.0266 80.7104 84.1665 81.2874 84.5394 81.7303L96.2011 95.5599C96.644 96.0844 97.3142 96.3058 97.9844 96.1485C98.6546 95.9911 99.1558 95.5016 99.319 94.8314L100.927 88.3158L101.773 88.5256C124.991 94.2078 148.209 80.6113 154.626 57.5853C157.779 46.2734 156.327 34.4019 150.54 24.1449C144.753 13.8878 135.341 6.50965 124.029 3.35676C105.089 -1.91749 84.7493 6.12501 74.5679 22.921C74.3698 23.2474 74.2182 23.6029 74.1133 23.9642C73.6121 25.7592 74.3756 27.6824 75.9724 28.6498C77.9423 29.8445 80.5124 29.2093 81.7013 27.2453C89.9536 13.6372 106.435 7.11575 121.786 11.3934C130.953 13.946 138.582 19.9313 143.273 28.2419C147.964 36.5524 149.136 46.1743 146.583 55.3416C144.083 64.3107 138.273 71.8462 130.213 76.5493C122.17 81.2466 112.781 82.6219 103.771 80.4248L102.921 80.215L104.413 74.1773C104.576 73.5071 104.366 72.8427 103.841 72.3882C103.503 72.0968 103.095 71.9452 102.676 71.9452Z" fill="white"/>
<path d="M58.1973 28.2419L56.7986 33.9124C33.388 28.1836 9.41204 42.0831 2.89645 65.4704C-3.74734 89.3182 10.2513 114.128 34.099 120.771C53.4126 126.15 74.1599 117.945 84.5394 100.817C84.7842 100.414 84.9649 99.9891 85.0872 99.552C85.6817 97.4248 84.8192 95.082 82.8377 93.8873C80.4541 92.4419 77.3536 93.2054 75.9083 95.589C67.86 108.865 51.7808 115.223 36.8031 111.056C18.3112 105.904 7.45969 86.6723 12.6116 68.1862C17.6585 50.0673 36.232 39.2916 54.3742 43.7149L53.0921 48.9018C52.5676 51.0173 54.6715 52.8356 56.6937 52.0138L73.4489 45.1894C75.1274 44.5075 75.6519 42.3803 74.4805 40.9933L62.8189 27.1637C61.4143 25.4969 58.7102 26.1263 58.1857 28.2477L58.1973 28.2419Z" fill="#020112"/>
<path d="M46.0695 123.645C41.9783 123.645 37.8405 123.097 33.7668 121.966C21.9129 118.662 12.0463 110.928 5.98526 100.187C-0.0757496 89.4349 -1.59683 76.9923 1.70759 65.1384C4.94207 53.535 12.46 43.7966 22.8861 37.7065C32.9334 31.8436 44.6009 29.9845 55.8895 32.4322L56.9968 27.9448C57.3523 26.5111 58.4654 25.4096 59.8991 25.0774C61.3386 24.7394 62.8189 25.2348 63.7746 26.3654L75.4363 40.195C76.2522 41.1624 76.5436 42.4212 76.2405 43.6451C75.9375 44.8748 75.0924 45.8481 73.921 46.3259L57.1658 53.1504C55.7963 53.7099 54.2577 53.4535 53.1387 52.486C52.0198 51.5186 51.5477 50.0325 51.9032 48.5988L52.8823 44.6358C35.591 41.0692 18.591 51.3554 13.8121 68.5069C11.411 77.1322 12.5183 86.1887 16.93 94.0039C21.3418 101.825 28.5217 107.449 37.147 109.856C51.5885 113.877 67.1024 107.746 74.8651 94.9422C76.6601 91.9817 80.5298 91.0317 83.4962 92.8267C85.8973 94.2837 87.0454 97.1801 86.2936 99.8843C86.1421 100.438 85.909 100.962 85.6118 101.458C77.1322 115.445 61.9272 123.645 46.0812 123.645H46.0695ZM45.9704 33.8368C26.8025 33.8368 9.47617 46.4658 4.09119 65.8028C-2.37194 88.9978 11.242 113.119 34.437 119.583C53.2203 124.816 73.3907 116.838 83.4904 100.176C83.6711 99.8784 83.8109 99.5579 83.9042 99.2199C84.3588 97.5823 83.6594 95.8222 82.2083 94.9422C80.4133 93.8524 78.0646 94.4294 76.9748 96.2244C68.6409 109.972 51.9906 116.558 36.4826 112.239C27.2221 109.658 19.5118 103.614 14.7795 95.222C10.0415 86.8298 8.85258 77.103 11.4343 67.8425C13.9578 58.7801 19.8323 51.1747 27.9739 46.4192C36.0922 41.6753 45.58 40.2882 54.6831 42.5028C55.0037 42.5786 55.2776 42.7826 55.4466 43.0623C55.6156 43.3421 55.668 43.6801 55.5923 44.0006L54.3102 49.1874C54.1761 49.7236 54.3509 50.2539 54.7647 50.6153C55.1785 50.9766 55.7322 51.064 56.245 50.86L73.0002 44.0356C73.4315 43.8607 73.7403 43.4994 73.8511 43.0507C73.9618 42.6019 73.8511 42.1357 73.5538 41.786L61.8922 27.9564C61.5367 27.5368 61.0064 27.3561 60.4702 27.4844C59.9341 27.6067 59.5378 28.003 59.4037 28.5392L58.005 34.2097C57.8419 34.8741 57.1775 35.2763 56.5131 35.1131C52.9814 34.2505 49.4497 33.8368 45.9763 33.8368H45.9704Z" fill="#020112"/>
<path d="M28.9355 90.7983L31.8261 89.3996C32.1525 89.2422 32.543 89.3238 32.7936 89.5861C33.4579 90.2854 34.1748 90.9265 34.9382 91.4976C35.2296 91.7191 35.3578 92.092 35.2355 92.4359L34.1806 95.4664C33.9009 96.2765 34.3263 97.1623 35.1364 97.4479L40.7953 99.4177C41.6053 99.6974 42.4912 99.272 42.7767 98.4619L43.8316 95.4314C43.954 95.0876 44.2862 94.8661 44.6475 94.8778C45.5974 94.9069 46.559 94.8486 47.5148 94.7146C47.8762 94.6622 48.2317 94.8428 48.389 95.1692L49.7877 98.0598C50.1607 98.8349 51.0931 99.1555 51.8624 98.7825L57.2591 96.1774C58.0342 95.8044 58.3547 94.872 57.9817 94.1027L56.583 91.212C56.4257 90.8857 56.5073 90.4952 56.7695 90.2446C57.4747 89.5802 58.1099 88.8634 58.6811 88.0999C58.9025 87.8085 59.2755 87.6803 59.6194 87.8027L62.6499 88.8576C63.4599 89.1373 64.3458 88.7119 64.6313 87.9018L66.6012 82.2429C66.8809 81.4328 66.4555 80.547 65.6454 80.2614L62.6149 79.2066C62.271 79.0842 62.0496 78.752 62.0612 78.3907C62.0904 77.4407 62.0321 76.4791 61.8981 75.5233C61.8456 75.162 62.0263 74.8065 62.3526 74.6492L65.2433 73.2505C66.0184 72.8775 66.3389 71.945 65.9659 71.1757L63.3609 65.7791C62.9879 65.004 62.0554 64.6835 61.2861 65.0564L58.3955 66.4551C58.0691 66.6125 57.6787 66.5309 57.4281 66.2686C56.7637 65.5635 56.0469 64.9282 55.2834 64.3571C54.992 64.1356 54.8638 63.7627 54.9862 63.4188L56.041 60.3883C56.3208 59.5782 55.8953 58.6924 55.0853 58.4068L49.4264 56.437C48.6163 56.1573 47.7305 56.5827 47.4449 57.3928L46.39 60.4233C46.2677 60.7671 45.9355 60.9886 45.5741 60.9769C44.6242 60.9478 43.6626 61.0061 42.7068 61.1401C42.3455 61.1926 41.99 61.0119 41.8326 60.6855L40.4339 57.7949C40.0609 57.0198 39.1285 56.6992 38.3592 57.0722L32.9626 59.6773C32.1875 60.0503 31.8669 60.9827 32.2399 61.752L33.6386 64.6427C33.796 64.969 33.7144 65.3595 33.4521 65.6101C32.7469 66.2745 32.1117 66.9913 31.5406 67.7548C31.3191 68.0462 30.9461 68.1744 30.6023 68.052L27.5718 66.9971C26.7617 66.7174 25.8759 67.1428 25.5903 67.9529L23.6205 73.6118C23.3407 74.4219 23.7662 75.3077 24.5762 75.5933L27.6067 76.6481C27.9506 76.7705 28.172 77.1027 28.1604 77.464C28.1313 78.414 28.1895 79.3756 28.3236 80.3314C28.376 80.6927 28.1954 81.0482 27.869 81.2055L24.9784 82.6042C24.2033 82.9772 23.8827 83.9097 24.2557 84.679L26.8608 90.0756C27.2338 90.8507 28.1662 91.1712 28.9355 90.7983Z" fill="#008F96"/>
<path d="M41.3081 100.391C41.04 100.391 40.7661 100.345 40.5038 100.257L34.8449 98.2874C33.5803 97.8445 32.9101 96.4574 33.353 95.1928L34.4078 92.1623C33.6094 91.6086 32.846 90.9326 32.1583 90.1983L29.3143 91.597C28.7315 91.8767 28.0729 91.9175 27.4552 91.7019C26.8432 91.4862 26.3479 91.0491 26.0681 90.4664L23.4631 85.0697C22.8803 83.8633 23.3873 82.4064 24.5937 81.8236L27.4843 80.4249C27.3095 79.4633 27.2512 78.4492 27.2803 77.4468L24.279 76.4211C23.0143 75.9782 22.3441 74.5912 22.787 73.3265L24.7569 67.6676C25.1998 66.403 26.5868 65.7328 27.8515 66.1757L30.882 67.2305C31.4415 66.4263 32.1175 65.6687 32.846 64.981L31.4473 62.137C31.1675 61.5542 31.1267 60.8956 31.3424 60.2779C31.558 59.6659 31.9951 59.1706 32.5779 58.8908L37.9745 56.2858C38.5573 56.006 39.2217 55.9652 39.8336 56.1809C40.4455 56.3965 40.9409 56.8336 41.2207 57.4164L42.6193 60.307C43.581 60.1322 44.595 60.0739 45.5974 60.103L46.6231 57.1017C47.066 55.837 48.4531 55.1668 49.7177 55.6097L55.3766 57.5796C56.6413 58.0225 57.3115 59.4095 56.8685 60.6742L55.8137 63.7047C56.6179 64.2583 57.3756 64.9402 58.0633 65.6687L60.9073 64.27C62.1137 63.6872 63.5706 64.1942 64.1534 65.4006L66.7585 70.7972C67.3413 72.0036 66.8342 73.4606 65.6279 74.0434L62.7372 75.442C62.9121 76.3978 62.9704 77.4177 62.9412 78.4201L65.9426 79.4458C67.2072 79.8887 67.8774 81.2758 67.4345 82.5404L65.4647 88.1993C65.0218 89.464 63.6347 90.1342 62.3701 89.6912L59.3396 88.6364C58.7859 89.4348 58.1099 90.1983 57.3756 90.886L58.7743 93.73C59.054 94.3128 59.0948 94.9713 58.8792 95.5891C58.6635 96.201 58.2265 96.6964 57.6437 96.9761L52.247 99.5812C51.0407 100.164 49.5837 99.6569 49.0009 98.4506L47.6022 95.5599C46.6406 95.7348 45.6265 95.793 44.6241 95.7639L43.5984 98.7653C43.3828 99.3772 42.9457 99.8726 42.3629 100.152C42.0307 100.315 41.6694 100.397 41.3081 100.397V100.391ZM32.1816 88.4499C32.642 88.4499 33.0966 88.6364 33.4288 88.9919C34.0523 89.6504 34.7342 90.2624 35.4627 90.8044C36.063 91.2531 36.3077 92.0282 36.063 92.7334L35.0081 95.7639C34.8857 96.1194 35.0722 96.5099 35.4277 96.6323L41.0866 98.6021C41.4421 98.7245 41.8268 98.538 41.955 98.1825L43.0098 95.152C43.2546 94.4468 43.9131 94.0039 44.6766 94.0155C45.5858 94.0389 46.4949 93.9864 47.3982 93.8582C48.1442 93.7533 48.861 94.1263 49.1816 94.7965L50.5803 97.6871C50.7434 98.0251 51.1514 98.165 51.4894 98.0018L56.886 95.3968C57.0492 95.3152 57.1716 95.1811 57.2357 95.0063C57.294 94.8373 57.2823 94.6508 57.2066 94.4876L55.8079 91.597C55.4873 90.9268 55.633 90.1283 56.1809 89.6155C56.8394 88.9919 57.4513 88.31 57.9933 87.5815C58.4421 86.9813 59.223 86.7365 59.9224 86.9813L62.9529 88.0361C63.3025 88.1585 63.6988 87.972 63.8212 87.6165L65.7911 81.9576C65.9134 81.6021 65.7269 81.2117 65.3714 81.0893L62.3409 80.0344C61.6416 79.7897 61.1812 79.1194 61.2045 78.3676C61.2278 77.4585 61.1754 76.5435 61.0471 75.646C60.9422 74.9001 61.3152 74.1832 61.9854 73.8627L64.8761 72.464C65.2141 72.3008 65.354 71.8929 65.1908 71.5548L62.5857 66.1582C62.4225 65.8202 62.0146 65.6803 61.6766 65.8435L58.7859 67.2422C58.1157 67.5627 57.3173 67.417 56.8044 66.8692C56.1809 66.2107 55.499 65.5987 54.7705 65.0567C54.1702 64.608 53.9255 63.8329 54.1702 63.1277L55.2251 60.0972C55.2834 59.9282 55.2717 59.7417 55.1959 59.5785C55.1144 59.4153 54.9803 59.293 54.8055 59.2288L49.1466 57.259C48.7911 57.1366 48.4006 57.3231 48.2782 57.6786L47.2234 60.7091C46.9786 61.4085 46.3142 61.8572 45.5566 61.8456C44.6475 61.8164 43.7325 61.8747 42.835 62.0029C42.089 62.1078 41.3722 61.729 41.0516 61.0646L39.653 58.174C39.4898 57.836 39.0818 57.6961 38.7438 57.8593L33.3472 60.4644C33.0092 60.6275 32.8693 61.0355 33.0325 61.3735L34.4312 64.2641C34.7575 64.9344 34.606 65.7328 34.0582 66.2456C33.3996 66.8692 32.7935 67.5511 32.2457 68.2796C31.797 68.8798 31.0218 69.1246 30.3167 68.8798L27.2862 67.825C26.9307 67.7026 26.5402 67.8891 26.4178 68.2446L24.448 73.9035C24.3897 74.0725 24.4014 74.259 24.4771 74.4222C24.5587 74.5853 24.6928 74.7077 24.8676 74.7718L27.8981 75.8267C28.5974 76.0715 29.0578 76.7417 29.0345 77.4935C29.0112 78.4026 29.0637 79.3176 29.1919 80.2151C29.2968 80.9611 28.9238 81.6779 28.2536 81.9984L25.363 83.3971C25.0249 83.5603 24.8851 83.9683 25.0483 84.3063L27.6533 89.7029C27.7349 89.8661 27.869 89.9885 28.0438 90.0526C28.2186 90.1109 28.3993 90.0992 28.5625 90.0234L31.4531 88.6247C31.6862 88.5082 31.9368 88.4557 32.1874 88.4557L32.1816 88.4499Z" fill="white"/>
<path d="M37.8638 81.4329C39.7987 85.4367 44.6125 87.1151 48.6163 85.1803C52.62 83.2454 54.2985 78.4316 52.3636 74.4278C50.4287 70.424 45.6149 68.7456 41.6111 70.6805C37.6074 72.6153 35.9289 77.4292 37.8638 81.4329Z" fill="white"/>
<path d="M45.1254 87.2143C41.6694 87.2143 38.3475 85.2794 36.7507 81.9692C34.5244 77.3593 36.4593 71.7937 41.0691 69.5674C45.679 67.3412 51.2446 69.276 53.4709 73.8917C54.5491 76.1238 54.6948 78.6473 53.8789 80.9901C53.0629 83.3329 51.3845 85.2153 49.1524 86.2935C47.8528 86.9229 46.4774 87.2201 45.1254 87.2201V87.2143ZM45.102 71.1177C44.1113 71.1177 43.1031 71.3333 42.1473 71.7937C38.7613 73.4313 37.3393 77.5109 38.9769 80.8969C40.6087 84.2829 44.6941 85.7049 48.0801 84.0672C49.7177 83.2746 50.9533 81.8934 51.5535 80.1742C52.1538 78.455 52.0489 76.6075 51.2563 74.9641C50.0791 72.5338 47.643 71.1118 45.1079 71.1118L45.102 71.1177Z" fill="#020112"/>
<path d="M97.4598 57.6901L100.35 56.2914C100.677 56.134 101.067 56.2156 101.318 56.4779C101.982 57.1831 102.699 57.8183 103.463 58.3894C103.754 58.6109 103.882 58.9839 103.76 59.3277L102.705 62.3582C102.419 63.1683 102.851 64.0542 103.661 64.3397L109.32 66.3095C110.13 66.5893 111.016 66.1638 111.301 65.3538L112.356 62.3233C112.478 61.9794 112.811 61.758 113.172 61.7696C114.122 61.7988 115.083 61.7405 116.039 61.6064C116.401 61.554 116.756 61.7346 116.913 62.061L118.312 64.9516C118.685 65.7268 119.618 66.0473 120.387 65.6743L125.783 63.0692C126.559 62.6963 126.879 61.7638 126.506 60.9945L125.107 58.1039C124.95 57.7775 125.032 57.387 125.294 57.1364C125.999 56.4721 126.634 55.7552 127.205 54.9918C127.427 54.7004 127.8 54.5722 128.144 54.6946L131.174 55.7494C131.984 56.0291 132.87 55.6037 133.156 54.7936L135.126 49.1347C135.405 48.3247 134.98 47.4388 134.17 47.1533L131.139 46.0984C130.795 45.976 130.574 45.6438 130.586 45.2825C130.615 44.3326 130.556 43.371 130.422 42.4152C130.37 42.0539 130.551 41.6984 130.877 41.541L133.768 40.1423C134.543 39.7693 134.863 38.8369 134.49 38.0676L131.885 32.6709C131.512 31.8958 130.58 31.5753 129.81 31.9483L126.92 33.347C126.593 33.5043 126.203 33.4227 125.952 33.1605C125.288 32.4611 124.571 31.8201 123.808 31.2489C123.516 31.0275 123.388 30.6545 123.511 30.3107L124.565 27.2801C124.851 26.4701 124.42 25.5842 123.61 25.2987L117.951 23.3288C117.141 23.0491 116.255 23.4745 115.969 24.2846L114.914 27.3151C114.792 27.659 114.46 27.8804 114.098 27.8688C113.149 27.8396 112.187 27.8979 111.231 28.0319C110.87 28.0844 110.514 27.9037 110.357 27.5774L108.958 24.6867C108.585 23.9116 107.653 23.5911 106.884 23.9641L101.487 26.5691C100.712 26.9421 100.391 27.8746 100.764 28.6439L102.163 31.5345C102.32 31.8609 102.239 32.2513 101.976 32.5019C101.271 33.1663 100.636 33.8832 100.065 34.6466C99.8435 34.938 99.4705 35.0662 99.1266 34.9438L96.0961 33.889C95.286 33.6092 94.4002 34.0347 94.1146 34.8448L92.1448 40.5036C91.8651 41.3137 92.2905 42.1996 93.1006 42.4851L96.1311 43.54C96.4749 43.6624 96.6964 43.9945 96.6847 44.3559C96.6556 45.3058 96.7139 46.2674 96.8479 47.2232C96.9004 47.5845 96.7197 47.94 96.3933 48.0974L93.5027 49.4961C92.7276 49.8691 92.4071 50.8015 92.7801 51.5708L95.3851 56.9674C95.7581 57.7425 96.6906 58.0631 97.4598 57.6901Z" fill="#020112"/>
<path d="M109.833 67.6384C109.524 67.6384 109.215 67.586 108.912 67.4811L103.253 65.5112C102.548 65.2665 101.982 64.7594 101.656 64.0892C101.33 63.419 101.289 62.6614 101.534 61.9562L102.489 59.2054C101.825 58.6926 101.196 58.1331 100.613 57.5328L97.9902 58.7975C96.6032 59.4677 94.9306 58.8849 94.2604 57.4979L91.6553 52.1012C91.329 51.431 91.2882 50.6734 91.5329 49.9682C91.7777 49.2631 92.2847 48.6978 92.9549 48.3714L95.5775 47.1067C95.4726 46.2734 95.426 45.4341 95.4318 44.6007L92.681 43.645C91.9759 43.4002 91.4105 42.8932 91.0842 42.223C90.7578 41.5528 90.717 40.7951 90.9618 40.09L92.9316 34.4311C93.1764 33.7259 93.6834 33.1606 94.3536 32.8342C95.0238 32.5079 95.7815 32.4671 96.4866 32.7118L99.2374 33.6676C99.7503 33.0032 100.31 32.3738 100.91 31.791L99.6454 29.1685C98.9751 27.7814 99.5579 26.1088 100.945 25.4386L106.342 22.8336C107.012 22.5072 107.769 22.4664 108.475 22.7112C109.18 22.956 109.745 23.463 110.071 24.1332L111.336 26.7557C112.169 26.6508 113.009 26.6042 113.842 26.61L114.798 23.8593C115.305 22.4081 116.896 21.633 118.353 22.14L124.012 24.1099C124.717 24.3546 125.282 24.8617 125.609 25.5319C125.935 26.2021 125.976 26.9597 125.731 27.6649L124.775 30.4157C125.44 30.9285 126.069 31.488 126.652 32.0883L129.274 30.8236C130.661 30.1534 132.334 30.7362 133.004 32.1232L135.609 37.5199C135.936 38.1901 135.976 38.9477 135.732 39.6529C135.487 40.358 134.98 40.9233 134.31 41.2497L131.687 42.5144C131.792 43.3419 131.839 44.187 131.833 45.0204L134.584 45.9761C135.289 46.2209 135.854 46.7279 136.18 47.3981C136.507 48.0683 136.548 48.826 136.303 49.5311L134.333 55.19C133.826 56.6412 132.229 57.4163 130.778 56.9093L128.027 55.9535C127.514 56.6179 126.955 57.2473 126.355 57.8301L127.619 60.4526C127.946 61.1228 127.986 61.8804 127.742 62.5856C127.497 63.2908 126.99 63.8561 126.32 64.1825L120.923 66.7875C120.253 67.1139 119.495 67.1547 118.79 66.9099C118.085 66.6651 117.52 66.1581 117.193 65.4879L115.928 62.8654C115.101 62.9703 114.256 63.0169 113.422 63.0111L112.467 65.7618C112.222 66.467 111.715 67.0323 111.045 67.3587C110.66 67.5452 110.246 67.6384 109.833 67.6384ZM100.706 54.9744C101.26 54.9744 101.813 55.2017 102.215 55.6271C102.827 56.274 103.492 56.8685 104.203 57.3988C104.931 57.9466 105.223 58.8849 104.925 59.7358L103.871 62.7663C103.812 62.9353 103.9 63.116 104.069 63.1742L109.728 65.1441C109.833 65.179 109.914 65.1557 109.972 65.1324C110.025 65.1091 110.101 65.0508 110.136 64.9517L111.19 61.9212C111.488 61.0704 112.286 60.5167 113.207 60.54C114.093 60.5633 114.99 60.5109 115.864 60.3885C116.768 60.2603 117.636 60.7149 118.027 61.5308L119.425 64.4214C119.472 64.5205 119.553 64.5671 119.606 64.5846C119.664 64.6021 119.752 64.6196 119.851 64.5729L125.247 61.9679C125.346 61.9212 125.393 61.8455 125.41 61.7872C125.428 61.7289 125.445 61.6415 125.399 61.5424L124 58.6518C123.61 57.8417 123.79 56.8743 124.449 56.2507C125.09 55.6388 125.69 54.9744 126.221 54.2634C126.768 53.5349 127.707 53.2435 128.558 53.5407L131.588 54.5956C131.757 54.6539 131.938 54.5664 131.996 54.3974L133.966 48.7385C134.001 48.6336 133.977 48.5462 133.954 48.4938C133.931 48.4413 133.873 48.3656 133.774 48.3306L130.743 47.2758C129.892 46.9785 129.338 46.1685 129.362 45.2593C129.385 44.3735 129.338 43.476 129.21 42.6018C129.082 41.6985 129.537 40.8301 130.353 40.4396L133.243 39.0409C133.342 38.9943 133.389 38.9127 133.406 38.8603C133.424 38.8078 133.441 38.7146 133.395 38.6155L130.79 33.2189C130.714 33.0615 130.522 32.9916 130.364 33.0732L127.474 34.4719C126.663 34.8623 125.696 34.6817 125.072 34.0231C124.466 33.3821 123.796 32.7818 123.085 32.2514C122.357 31.7036 122.065 30.7653 122.362 29.9145L123.417 26.884C123.452 26.779 123.429 26.6916 123.406 26.6392C123.377 26.5867 123.324 26.511 123.225 26.476L117.566 24.5062C117.397 24.4479 117.216 24.5353 117.158 24.7043L116.103 27.7348C115.806 28.5857 115.008 29.1452 114.087 29.116C113.201 29.0869 112.309 29.1393 111.429 29.2676C110.532 29.3958 109.658 28.9412 109.267 28.1253L107.869 25.2347C107.822 25.1356 107.746 25.089 107.688 25.0715C107.63 25.054 107.542 25.0365 107.443 25.0831L102.046 27.6882C101.889 27.764 101.819 27.9563 101.901 28.1136L103.299 31.0043C103.69 31.8143 103.509 32.7818 102.851 33.4054C102.21 34.0115 101.609 34.6817 101.079 35.3927C100.531 36.1212 99.5929 36.4126 98.742 36.1153L95.7115 35.0605C95.5425 35.0022 95.3619 35.0896 95.3036 35.2586L93.3337 40.9175C93.2988 41.0224 93.3221 41.1098 93.3454 41.1623C93.3687 41.2147 93.427 41.2905 93.5261 41.3255L96.5566 42.3803C97.4074 42.6775 97.9611 43.4876 97.9378 44.3968C97.9145 45.2826 97.9611 46.1743 98.0893 47.0543C98.2175 47.9576 97.763 48.826 96.947 49.2164L94.0564 50.6151C93.9573 50.6618 93.9107 50.7375 93.8932 50.7958C93.8757 50.8541 93.8583 50.9415 93.9049 51.0406L96.51 56.4372C96.5857 56.5945 96.778 56.6645 96.9354 56.5829L99.826 55.1842C100.112 55.0443 100.415 54.9802 100.718 54.9802L100.706 54.9744Z" fill="#020112"/>
<path d="M106.388 48.3191C108.323 52.3229 113.137 54.0013 117.141 52.0665C121.144 50.1316 122.823 45.3178 120.888 41.314C118.953 37.3103 114.139 35.6318 110.136 37.5667C106.132 39.5015 104.453 44.3154 106.388 48.3191Z" fill="white"/>
<path d="M113.65 54.1063C110.194 54.1063 106.872 52.1714 105.275 48.8612C103.049 44.2513 104.984 38.6857 109.594 36.4594C114.203 34.2332 119.769 36.168 121.995 40.7779C124.222 45.3877 122.287 50.9534 117.671 53.1796C116.371 53.8091 114.996 54.1063 113.644 54.1063H113.65ZM113.626 38.0038C112.636 38.0038 111.627 38.2194 110.672 38.6798C109.034 39.4724 107.799 40.8536 107.204 42.5729C106.604 44.2921 106.709 46.1395 107.501 47.783C109.139 51.169 113.219 52.591 116.605 50.9534C119.991 49.3157 121.413 45.2362 119.775 41.8502C118.598 39.42 116.162 38.0038 113.626 38.0038Z" fill="#020112"/>
</g>
<defs>
<clipPath id="clip0_90_6627">
<rect width="158" height="123.645" fill="white"/>
</clipPath>
</defs>
</svg>
